G04 Layer_Color=8388736*
%FSLAX25Y25*%
%MOIN*%
G70*
G01*
G75*
%ADD11C,0.01575*%
%ADD12C,0.00787*%
%ADD13C,0.00984*%
%ADD20C,0.01000*%
%ADD21C,0.00600*%
G36*
X1042339Y-162457D02*
Y-162743D01*
Y-163030D01*
Y-163316D01*
Y-163602D01*
Y-163889D01*
Y-164175D01*
Y-164461D01*
Y-164748D01*
Y-165034D01*
Y-165320D01*
Y-165607D01*
Y-165893D01*
Y-166179D01*
Y-166466D01*
Y-166752D01*
Y-167038D01*
Y-167324D01*
Y-167611D01*
Y-167897D01*
Y-168183D01*
X1042053D01*
Y-168470D01*
Y-168756D01*
Y-169042D01*
Y-169329D01*
Y-169615D01*
X1041767D01*
Y-169901D01*
Y-170188D01*
Y-170474D01*
Y-170760D01*
X1041481D01*
Y-171047D01*
Y-171333D01*
Y-171619D01*
Y-171906D01*
X1041194D01*
Y-172192D01*
Y-172478D01*
Y-172764D01*
X1040908D01*
Y-173051D01*
Y-173337D01*
Y-173623D01*
X1040622D01*
Y-173910D01*
Y-174196D01*
Y-174482D01*
X1040335D01*
Y-174769D01*
Y-175055D01*
Y-175341D01*
X1040049D01*
Y-175628D01*
Y-175914D01*
X1039763D01*
Y-176200D01*
Y-176487D01*
X1039476D01*
Y-176773D01*
Y-177059D01*
Y-177345D01*
X1039190D01*
Y-177632D01*
Y-177918D01*
X1038904D01*
Y-178204D01*
Y-178491D01*
Y-178777D01*
X1038617D01*
Y-179063D01*
Y-179350D01*
X1038331D01*
Y-179636D01*
Y-179922D01*
Y-180209D01*
X1038045D01*
Y-180495D01*
Y-180781D01*
X1037758D01*
Y-181068D01*
Y-181354D01*
Y-181640D01*
X1037472D01*
Y-181926D01*
Y-182213D01*
X1037186D01*
Y-182499D01*
Y-182785D01*
Y-183072D01*
X1036899D01*
Y-183358D01*
Y-183644D01*
X1036613D01*
Y-183931D01*
Y-184217D01*
Y-184503D01*
X1036327D01*
Y-184790D01*
Y-185076D01*
X1036041D01*
Y-185362D01*
Y-185649D01*
Y-185935D01*
X1035754D01*
Y-186221D01*
Y-186507D01*
X1035468D01*
Y-186794D01*
Y-187080D01*
Y-187366D01*
X1035182D01*
Y-187653D01*
Y-187939D01*
X1034895D01*
Y-188225D01*
Y-188512D01*
Y-188798D01*
X1034609D01*
Y-189084D01*
Y-189371D01*
X1034323D01*
Y-189657D01*
Y-189943D01*
Y-190229D01*
X1034036D01*
Y-190516D01*
Y-190802D01*
X1033750D01*
Y-191088D01*
Y-191375D01*
Y-191661D01*
X1033464D01*
Y-191947D01*
Y-192234D01*
X1033177D01*
Y-192520D01*
Y-192806D01*
Y-193093D01*
X1032891D01*
Y-193379D01*
Y-193665D01*
X1032605D01*
Y-193952D01*
Y-194238D01*
Y-194524D01*
X1032318D01*
Y-194810D01*
Y-195097D01*
X1032032D01*
Y-195383D01*
Y-195669D01*
Y-195956D01*
X1031746D01*
Y-196242D01*
Y-196528D01*
X1031460D01*
Y-196815D01*
Y-197101D01*
Y-197387D01*
X1031173D01*
Y-197674D01*
Y-197960D01*
X1030887D01*
Y-198246D01*
Y-198533D01*
Y-198819D01*
X1030601D01*
Y-199105D01*
Y-199391D01*
X1030314D01*
Y-199678D01*
Y-199964D01*
X1030028D01*
Y-200251D01*
Y-200537D01*
X1029742D01*
Y-200823D01*
Y-201109D01*
Y-201396D01*
X1029455D01*
Y-201682D01*
X1029169D01*
Y-201968D01*
Y-202255D01*
Y-202541D01*
X1028883D01*
Y-202827D01*
X1028596D01*
Y-203114D01*
Y-203400D01*
X1028310D01*
Y-203686D01*
Y-203973D01*
X1028024D01*
Y-204259D01*
Y-204545D01*
X1027738D01*
Y-204832D01*
Y-205118D01*
X1027451D01*
Y-205404D01*
X1027165D01*
Y-205690D01*
Y-205977D01*
X1026879D01*
Y-206263D01*
Y-206549D01*
X1026592D01*
Y-206836D01*
X1026306D01*
Y-207122D01*
X1026020D01*
Y-207408D01*
Y-207695D01*
X1025733D01*
Y-207981D01*
X1025447D01*
Y-208267D01*
Y-208554D01*
X1025161D01*
Y-208840D01*
X1024874D01*
Y-209126D01*
X1024588D01*
Y-209413D01*
Y-209699D01*
X1024302D01*
Y-209985D01*
X1024015D01*
Y-210271D01*
X1023729D01*
Y-210558D01*
X1023443D01*
Y-210844D01*
X1023157D01*
Y-211130D01*
Y-211417D01*
X1022870D01*
Y-211703D01*
X1022584D01*
Y-211989D01*
X1022297D01*
Y-212276D01*
X1022011D01*
Y-212562D01*
X1021725D01*
Y-212848D01*
X1021439D01*
Y-213135D01*
X1021152D01*
Y-213421D01*
X1020580D01*
Y-213707D01*
X1020293D01*
Y-213994D01*
X1020007D01*
Y-214280D01*
X1019721D01*
Y-214566D01*
X1019434D01*
Y-214852D01*
X1018862D01*
Y-215139D01*
X1018575D01*
Y-215425D01*
X1018003D01*
Y-215711D01*
X1017717D01*
Y-215998D01*
X1017144D01*
Y-216284D01*
X1016858D01*
Y-216570D01*
X1016285D01*
Y-216857D01*
X1015712D01*
Y-217143D01*
X1015140D01*
Y-217429D01*
X1014567D01*
Y-217716D01*
X1013995D01*
Y-218002D01*
X1013136D01*
Y-218288D01*
X1012563D01*
Y-218575D01*
X1011704D01*
Y-218861D01*
X1010559D01*
Y-219147D01*
X1009414D01*
Y-219433D01*
X1007696D01*
Y-219720D01*
X1005691D01*
Y-220006D01*
X1005405D01*
Y-219720D01*
Y-219433D01*
Y-219147D01*
Y-218861D01*
Y-218575D01*
Y-218288D01*
Y-218002D01*
Y-217716D01*
Y-217429D01*
Y-217143D01*
Y-216857D01*
Y-216570D01*
Y-216284D01*
Y-215998D01*
Y-215711D01*
Y-215425D01*
Y-215139D01*
Y-214852D01*
Y-214566D01*
Y-214280D01*
Y-213994D01*
Y-213707D01*
Y-213421D01*
Y-213135D01*
Y-212848D01*
Y-212562D01*
Y-212276D01*
Y-211989D01*
Y-211703D01*
Y-211417D01*
Y-211130D01*
Y-210844D01*
Y-210558D01*
X1005978D01*
Y-210271D01*
X1006550D01*
Y-209985D01*
X1007123D01*
Y-209699D01*
X1007696D01*
Y-209413D01*
X1008268D01*
Y-209126D01*
X1008841D01*
Y-208840D01*
X1009127D01*
Y-208554D01*
X1009700D01*
Y-208267D01*
X1009986D01*
Y-207981D01*
X1010559D01*
Y-207695D01*
X1010845D01*
Y-207408D01*
X1011131D01*
Y-207122D01*
X1011704D01*
Y-206836D01*
X1011990D01*
Y-206549D01*
X1012277D01*
Y-206263D01*
X1012563D01*
Y-205977D01*
X1012849D01*
Y-205690D01*
X1013136D01*
Y-205404D01*
X1013422D01*
Y-205118D01*
X1013708D01*
Y-204832D01*
X1013995D01*
Y-204545D01*
X1014281D01*
Y-204259D01*
X1014567D01*
Y-203973D01*
X1014853D01*
Y-203686D01*
Y-203400D01*
X1015140D01*
Y-203114D01*
X1015426D01*
Y-202827D01*
X1015712D01*
Y-202541D01*
Y-202255D01*
X1015999D01*
Y-201968D01*
X1016285D01*
Y-201682D01*
Y-201396D01*
X1016571D01*
Y-201109D01*
Y-200823D01*
X1016858D01*
Y-200537D01*
X1017144D01*
Y-200251D01*
Y-199964D01*
X1017430D01*
Y-199678D01*
Y-199391D01*
X1017717D01*
Y-199105D01*
Y-198819D01*
X1015999D01*
Y-198533D01*
X1013995D01*
Y-198246D01*
X1012849D01*
Y-197960D01*
X1012277D01*
Y-197674D01*
X1011418D01*
Y-197387D01*
X1010845D01*
Y-197101D01*
X1010559D01*
Y-196815D01*
X1009986D01*
Y-196528D01*
X1009700D01*
Y-196242D01*
X1009414D01*
Y-195956D01*
X1009127D01*
Y-195669D01*
X1008841D01*
Y-195383D01*
X1008554D01*
Y-195097D01*
Y-194810D01*
X1008268D01*
Y-194524D01*
X1007982D01*
Y-194238D01*
Y-193952D01*
X1007696D01*
Y-193665D01*
Y-193379D01*
X1007409D01*
Y-193093D01*
Y-192806D01*
X1007123D01*
Y-192520D01*
Y-192234D01*
Y-191947D01*
X1006837D01*
Y-191661D01*
Y-191375D01*
Y-191088D01*
Y-190802D01*
X1006550D01*
Y-190516D01*
Y-190229D01*
Y-189943D01*
Y-189657D01*
Y-189371D01*
Y-189084D01*
Y-188798D01*
X1006264D01*
Y-188512D01*
Y-188225D01*
Y-187939D01*
Y-187653D01*
Y-187366D01*
Y-187080D01*
Y-186794D01*
Y-186507D01*
Y-186221D01*
Y-185935D01*
Y-185649D01*
Y-185362D01*
Y-185076D01*
Y-184790D01*
Y-184503D01*
X1005978D01*
Y-184217D01*
Y-183931D01*
Y-183644D01*
Y-183358D01*
Y-183072D01*
Y-182785D01*
Y-182499D01*
Y-182213D01*
Y-181926D01*
Y-181640D01*
Y-181354D01*
Y-181068D01*
Y-180781D01*
Y-180495D01*
Y-180209D01*
X1005691D01*
Y-179922D01*
Y-179636D01*
Y-179350D01*
Y-179063D01*
Y-178777D01*
Y-178491D01*
Y-178204D01*
Y-177918D01*
Y-177632D01*
Y-177345D01*
Y-177059D01*
Y-176773D01*
Y-176487D01*
Y-176200D01*
Y-175914D01*
Y-175628D01*
X1005405D01*
Y-175341D01*
Y-175055D01*
Y-174769D01*
Y-174482D01*
Y-174196D01*
Y-173910D01*
Y-173623D01*
Y-173337D01*
Y-173051D01*
Y-172764D01*
Y-172478D01*
Y-172192D01*
Y-171906D01*
Y-171619D01*
Y-171333D01*
Y-171047D01*
X1005119D01*
Y-170760D01*
Y-170474D01*
Y-170188D01*
Y-169901D01*
Y-169615D01*
Y-169329D01*
Y-169042D01*
Y-168756D01*
Y-168470D01*
Y-168183D01*
Y-167897D01*
Y-167611D01*
Y-167324D01*
Y-167038D01*
X1004832D01*
Y-166752D01*
Y-166466D01*
Y-166179D01*
Y-165893D01*
Y-165607D01*
Y-165320D01*
Y-165034D01*
Y-164748D01*
Y-164461D01*
Y-164175D01*
Y-163889D01*
Y-163602D01*
Y-163316D01*
Y-163030D01*
Y-162743D01*
Y-162457D01*
X1004546D01*
Y-162171D01*
X1018289D01*
Y-162457D01*
Y-162743D01*
Y-163030D01*
Y-163316D01*
Y-163602D01*
Y-163889D01*
Y-164175D01*
Y-164461D01*
Y-164748D01*
Y-165034D01*
Y-165320D01*
Y-165607D01*
Y-165893D01*
Y-166179D01*
X1018575D01*
Y-166466D01*
Y-166752D01*
Y-167038D01*
Y-167324D01*
Y-167611D01*
Y-167897D01*
Y-168183D01*
Y-168470D01*
Y-168756D01*
Y-169042D01*
Y-169329D01*
Y-169615D01*
Y-169901D01*
Y-170188D01*
Y-170474D01*
Y-170760D01*
Y-171047D01*
Y-171333D01*
Y-171619D01*
Y-171906D01*
Y-172192D01*
Y-172478D01*
Y-172764D01*
Y-173051D01*
Y-173337D01*
Y-173623D01*
Y-173910D01*
Y-174196D01*
Y-174482D01*
Y-174769D01*
Y-175055D01*
Y-175341D01*
Y-175628D01*
Y-175914D01*
Y-176200D01*
Y-176487D01*
Y-176773D01*
Y-177059D01*
Y-177345D01*
Y-177632D01*
Y-177918D01*
X1018862D01*
Y-178204D01*
X1018575D01*
Y-178491D01*
Y-178777D01*
X1018862D01*
Y-179063D01*
Y-179350D01*
Y-179636D01*
Y-179922D01*
Y-180209D01*
Y-180495D01*
Y-180781D01*
Y-181068D01*
Y-181354D01*
Y-181640D01*
Y-181926D01*
Y-182213D01*
Y-182499D01*
Y-182785D01*
Y-183072D01*
Y-183358D01*
Y-183644D01*
Y-183931D01*
Y-184217D01*
Y-184503D01*
Y-184790D01*
Y-185076D01*
Y-185362D01*
Y-185649D01*
Y-185935D01*
Y-186221D01*
X1019148D01*
Y-186507D01*
Y-186794D01*
Y-187080D01*
X1019434D01*
Y-187366D01*
X1019721D01*
Y-187653D01*
X1020007D01*
Y-187939D01*
X1020866D01*
Y-188225D01*
X1021725D01*
Y-187939D01*
X1022011D01*
Y-187653D01*
Y-187366D01*
Y-187080D01*
X1022297D01*
Y-186794D01*
Y-186507D01*
X1022584D01*
Y-186221D01*
Y-185935D01*
Y-185649D01*
X1022870D01*
Y-185362D01*
Y-185076D01*
Y-184790D01*
X1023157D01*
Y-184503D01*
Y-184217D01*
Y-183931D01*
X1023443D01*
Y-183644D01*
Y-183358D01*
Y-183072D01*
X1023729D01*
Y-182785D01*
Y-182499D01*
X1024015D01*
Y-182213D01*
Y-181926D01*
Y-181640D01*
X1024302D01*
Y-181354D01*
Y-181068D01*
Y-180781D01*
X1024588D01*
Y-180495D01*
Y-180209D01*
Y-179922D01*
X1024874D01*
Y-179636D01*
Y-179350D01*
X1025161D01*
Y-179063D01*
Y-178777D01*
Y-178491D01*
X1025447D01*
Y-178204D01*
Y-177918D01*
Y-177632D01*
X1025733D01*
Y-177345D01*
Y-177059D01*
Y-176773D01*
X1026020D01*
Y-176487D01*
Y-176200D01*
X1026306D01*
Y-175914D01*
Y-175628D01*
Y-175341D01*
X1026592D01*
Y-175055D01*
Y-174769D01*
Y-174482D01*
X1026879D01*
Y-174196D01*
Y-173910D01*
Y-173623D01*
X1027165D01*
Y-173337D01*
Y-173051D01*
X1027451D01*
Y-172764D01*
Y-172478D01*
Y-172192D01*
X1027738D01*
Y-171906D01*
Y-171619D01*
Y-171333D01*
X1028024D01*
Y-171047D01*
Y-170760D01*
Y-170474D01*
X1028310D01*
Y-170188D01*
Y-169901D01*
Y-169615D01*
Y-169329D01*
X1028596D01*
Y-169042D01*
Y-168756D01*
Y-168470D01*
Y-168183D01*
X1028883D01*
Y-167897D01*
Y-167611D01*
Y-167324D01*
Y-167038D01*
Y-166752D01*
X1029169D01*
Y-166466D01*
Y-166179D01*
Y-165893D01*
Y-165607D01*
Y-165320D01*
Y-165034D01*
X1029455D01*
Y-164748D01*
Y-164461D01*
Y-164175D01*
Y-163889D01*
Y-163602D01*
Y-163316D01*
Y-163030D01*
Y-162743D01*
Y-162457D01*
Y-162171D01*
X1042339D01*
Y-162457D01*
D02*
G37*
G36*
X984504Y-144992D02*
Y-145278D01*
X984218D01*
Y-145565D01*
Y-145851D01*
Y-146137D01*
Y-146424D01*
Y-146710D01*
Y-146996D01*
X983932D01*
Y-147283D01*
Y-147569D01*
Y-147855D01*
Y-148142D01*
Y-148428D01*
Y-148714D01*
X983645D01*
Y-149001D01*
Y-149287D01*
Y-149573D01*
Y-149859D01*
Y-150146D01*
Y-150432D01*
Y-150718D01*
X983359D01*
Y-151005D01*
Y-151291D01*
Y-151577D01*
Y-151864D01*
Y-152150D01*
Y-152436D01*
X983073D01*
Y-152723D01*
Y-153009D01*
Y-153295D01*
Y-153582D01*
Y-153868D01*
Y-154154D01*
X982786D01*
Y-154440D01*
Y-154727D01*
Y-155013D01*
Y-155299D01*
Y-155586D01*
Y-155872D01*
Y-156158D01*
X982500D01*
Y-156445D01*
Y-156731D01*
Y-157017D01*
Y-157304D01*
Y-157590D01*
Y-157876D01*
X982214D01*
Y-158162D01*
Y-158449D01*
Y-158735D01*
Y-159021D01*
Y-159308D01*
Y-159594D01*
X981927D01*
Y-159880D01*
Y-160167D01*
Y-160453D01*
Y-160739D01*
Y-161026D01*
Y-161312D01*
X981641D01*
Y-161598D01*
Y-161884D01*
Y-162171D01*
Y-162457D01*
Y-162743D01*
Y-163030D01*
Y-163316D01*
X981355D01*
Y-163602D01*
Y-163889D01*
Y-164175D01*
Y-164461D01*
Y-164748D01*
Y-165034D01*
X981069D01*
Y-165320D01*
Y-165607D01*
X981641D01*
Y-165320D01*
X981927D01*
Y-165034D01*
X982214D01*
Y-164748D01*
X982786D01*
Y-164461D01*
X983073D01*
Y-164175D01*
X983359D01*
Y-163889D01*
X983932D01*
Y-163602D01*
X984504D01*
Y-163316D01*
X984791D01*
Y-163030D01*
X985363D01*
Y-162743D01*
X986222D01*
Y-162457D01*
X986795D01*
Y-162171D01*
X987654D01*
Y-161884D01*
X989085D01*
Y-161598D01*
X995384D01*
Y-161884D01*
X996529D01*
Y-162171D01*
X997388D01*
Y-162457D01*
X997961D01*
Y-162743D01*
X998247D01*
Y-163030D01*
X998820D01*
Y-163316D01*
X999106D01*
Y-163602D01*
X999393D01*
Y-163889D01*
X999679D01*
Y-164175D01*
X999965D01*
Y-164461D01*
Y-164748D01*
X1000251D01*
Y-165034D01*
Y-165320D01*
X1000538D01*
Y-165607D01*
Y-165893D01*
Y-166179D01*
X1000824D01*
Y-166466D01*
Y-166752D01*
Y-167038D01*
Y-167324D01*
X1001110D01*
Y-167611D01*
Y-167897D01*
Y-168183D01*
Y-168470D01*
Y-168756D01*
Y-169042D01*
Y-169329D01*
Y-169615D01*
Y-169901D01*
Y-170188D01*
Y-170474D01*
Y-170760D01*
Y-171047D01*
Y-171333D01*
Y-171619D01*
Y-171906D01*
Y-172192D01*
Y-172478D01*
X1000824D01*
Y-172764D01*
Y-173051D01*
Y-173337D01*
Y-173623D01*
Y-173910D01*
Y-174196D01*
Y-174482D01*
X1000538D01*
Y-174769D01*
Y-175055D01*
Y-175341D01*
Y-175628D01*
Y-175914D01*
Y-176200D01*
Y-176487D01*
X1000251D01*
Y-176773D01*
Y-177059D01*
Y-177345D01*
Y-177632D01*
Y-177918D01*
Y-178204D01*
X999965D01*
Y-178491D01*
Y-178777D01*
Y-179063D01*
Y-179350D01*
Y-179636D01*
Y-179922D01*
X999679D01*
Y-180209D01*
Y-180495D01*
Y-180781D01*
Y-181068D01*
Y-181354D01*
Y-181640D01*
X999393D01*
Y-181926D01*
Y-182213D01*
Y-182499D01*
Y-182785D01*
Y-183072D01*
Y-183358D01*
Y-183644D01*
X999106D01*
Y-183931D01*
Y-184217D01*
Y-184503D01*
Y-184790D01*
Y-185076D01*
Y-185362D01*
X998820D01*
Y-185649D01*
Y-185935D01*
Y-186221D01*
Y-186507D01*
Y-186794D01*
Y-187080D01*
X998534D01*
Y-187366D01*
Y-187653D01*
Y-187939D01*
Y-188225D01*
Y-188512D01*
Y-188798D01*
Y-189084D01*
X998247D01*
Y-189371D01*
Y-189657D01*
Y-189943D01*
Y-190229D01*
Y-190516D01*
Y-190802D01*
X997961D01*
Y-191088D01*
Y-191375D01*
Y-191661D01*
Y-191947D01*
Y-192234D01*
Y-192520D01*
X997675D01*
Y-192806D01*
Y-193093D01*
Y-193379D01*
Y-193665D01*
Y-193952D01*
Y-194238D01*
X997388D01*
Y-194524D01*
Y-194810D01*
Y-195097D01*
Y-195383D01*
Y-195669D01*
Y-195956D01*
Y-196242D01*
X997102D01*
Y-196528D01*
Y-196815D01*
Y-197101D01*
Y-197387D01*
Y-197674D01*
Y-197960D01*
X996816D01*
Y-198246D01*
Y-198533D01*
X983645D01*
Y-198246D01*
Y-197960D01*
X983932D01*
Y-197674D01*
Y-197387D01*
Y-197101D01*
Y-196815D01*
Y-196528D01*
Y-196242D01*
X984218D01*
Y-195956D01*
Y-195669D01*
Y-195383D01*
Y-195097D01*
Y-194810D01*
Y-194524D01*
Y-194238D01*
X984504D01*
Y-193952D01*
Y-193665D01*
Y-193379D01*
Y-193093D01*
Y-192806D01*
Y-192520D01*
X984791D01*
Y-192234D01*
Y-191947D01*
Y-191661D01*
Y-191375D01*
Y-191088D01*
Y-190802D01*
X985077D01*
Y-190516D01*
Y-190229D01*
Y-189943D01*
Y-189657D01*
Y-189371D01*
Y-189084D01*
Y-188798D01*
X985363D01*
Y-188512D01*
Y-188225D01*
Y-187939D01*
Y-187653D01*
Y-187366D01*
Y-187080D01*
X985649D01*
Y-186794D01*
Y-186507D01*
Y-186221D01*
Y-185935D01*
Y-185649D01*
Y-185362D01*
Y-185076D01*
X985936D01*
Y-184790D01*
Y-184503D01*
Y-184217D01*
Y-183931D01*
Y-183644D01*
Y-183358D01*
X986222D01*
Y-183072D01*
Y-182785D01*
Y-182499D01*
Y-182213D01*
Y-181926D01*
Y-181640D01*
X986508D01*
Y-181354D01*
Y-181068D01*
Y-180781D01*
Y-180495D01*
Y-180209D01*
Y-179922D01*
X986795D01*
Y-179636D01*
Y-179350D01*
Y-179063D01*
Y-178777D01*
Y-178491D01*
Y-178204D01*
Y-177918D01*
X987081D01*
Y-177632D01*
Y-177345D01*
Y-177059D01*
Y-176773D01*
Y-176487D01*
Y-176200D01*
X987367D01*
Y-175914D01*
Y-175628D01*
Y-175341D01*
Y-175055D01*
Y-174769D01*
Y-174482D01*
Y-174196D01*
X987654D01*
Y-173910D01*
Y-173623D01*
Y-173337D01*
Y-173051D01*
Y-172764D01*
Y-172478D01*
X987367D01*
Y-172192D01*
Y-171906D01*
X987081D01*
Y-171619D01*
X986795D01*
Y-171333D01*
X986222D01*
Y-171047D01*
X984504D01*
Y-171333D01*
X983073D01*
Y-171619D01*
X982214D01*
Y-171906D01*
X981641D01*
Y-172192D01*
X981355D01*
Y-172478D01*
X980782D01*
Y-172764D01*
X980496D01*
Y-173051D01*
X980210D01*
Y-173337D01*
Y-173623D01*
X979923D01*
Y-173910D01*
Y-174196D01*
Y-174482D01*
X979637D01*
Y-174769D01*
Y-175055D01*
Y-175341D01*
Y-175628D01*
Y-175914D01*
Y-176200D01*
X979351D01*
Y-176487D01*
Y-176773D01*
Y-177059D01*
Y-177345D01*
Y-177632D01*
Y-177918D01*
Y-178204D01*
X979064D01*
Y-178491D01*
Y-178777D01*
Y-179063D01*
Y-179350D01*
Y-179636D01*
Y-179922D01*
X978778D01*
Y-180209D01*
Y-180495D01*
Y-180781D01*
Y-181068D01*
Y-181354D01*
Y-181640D01*
X978492D01*
Y-181926D01*
Y-182213D01*
Y-182499D01*
Y-182785D01*
Y-183072D01*
Y-183358D01*
X978205D01*
Y-183644D01*
Y-183931D01*
Y-184217D01*
Y-184503D01*
Y-184790D01*
Y-185076D01*
Y-185362D01*
X977919D01*
Y-185649D01*
Y-185935D01*
Y-186221D01*
Y-186507D01*
Y-186794D01*
Y-187080D01*
X977633D01*
Y-187366D01*
Y-187653D01*
Y-187939D01*
Y-188225D01*
Y-188512D01*
Y-188798D01*
X977346D01*
Y-189084D01*
Y-189371D01*
Y-189657D01*
Y-189943D01*
Y-190229D01*
Y-190516D01*
Y-190802D01*
X977060D01*
Y-191088D01*
Y-191375D01*
Y-191661D01*
Y-191947D01*
Y-192234D01*
Y-192520D01*
X976774D01*
Y-192806D01*
Y-193093D01*
Y-193379D01*
Y-193665D01*
Y-193952D01*
Y-194238D01*
X976488D01*
Y-194524D01*
Y-194810D01*
Y-195097D01*
Y-195383D01*
Y-195669D01*
Y-195956D01*
X976201D01*
Y-196242D01*
Y-196528D01*
Y-196815D01*
Y-197101D01*
Y-197387D01*
Y-197674D01*
Y-197960D01*
X975915D01*
Y-198246D01*
Y-198533D01*
X962745D01*
Y-198246D01*
Y-197960D01*
X963031D01*
Y-197674D01*
Y-197387D01*
Y-197101D01*
Y-196815D01*
Y-196528D01*
Y-196242D01*
Y-195956D01*
X963317D01*
Y-195669D01*
Y-195383D01*
Y-195097D01*
Y-194810D01*
Y-194524D01*
Y-194238D01*
X963603D01*
Y-193952D01*
Y-193665D01*
Y-193379D01*
Y-193093D01*
Y-192806D01*
Y-192520D01*
X963890D01*
Y-192234D01*
Y-191947D01*
Y-191661D01*
Y-191375D01*
Y-191088D01*
Y-190802D01*
Y-190516D01*
X964176D01*
Y-190229D01*
Y-189943D01*
Y-189657D01*
Y-189371D01*
Y-189084D01*
Y-188798D01*
X964462D01*
Y-188512D01*
Y-188225D01*
Y-187939D01*
Y-187653D01*
Y-187366D01*
Y-187080D01*
X964749D01*
Y-186794D01*
Y-186507D01*
Y-186221D01*
Y-185935D01*
Y-185649D01*
Y-185362D01*
X965035D01*
Y-185076D01*
Y-184790D01*
Y-184503D01*
Y-184217D01*
Y-183931D01*
Y-183644D01*
Y-183358D01*
X965321D01*
Y-183072D01*
Y-182785D01*
Y-182499D01*
Y-182213D01*
Y-181926D01*
Y-181640D01*
X965608D01*
Y-181354D01*
Y-181068D01*
Y-180781D01*
Y-180495D01*
Y-180209D01*
Y-179922D01*
X965894D01*
Y-179636D01*
Y-179350D01*
Y-179063D01*
Y-178777D01*
Y-178491D01*
Y-178204D01*
Y-177918D01*
X966180D01*
Y-177632D01*
Y-177345D01*
Y-177059D01*
Y-176773D01*
Y-176487D01*
Y-176200D01*
X966467D01*
Y-175914D01*
Y-175628D01*
Y-175341D01*
Y-175055D01*
Y-174769D01*
Y-174482D01*
X966753D01*
Y-174196D01*
Y-173910D01*
Y-173623D01*
Y-173337D01*
Y-173051D01*
Y-172764D01*
X967039D01*
Y-172478D01*
Y-172192D01*
Y-171906D01*
Y-171619D01*
Y-171333D01*
Y-171047D01*
Y-170760D01*
X967325D01*
Y-170474D01*
Y-170188D01*
Y-169901D01*
Y-169615D01*
Y-169329D01*
Y-169042D01*
X967612D01*
Y-168756D01*
Y-168470D01*
Y-168183D01*
Y-167897D01*
Y-167611D01*
Y-167324D01*
X967898D01*
Y-167038D01*
Y-166752D01*
Y-166466D01*
Y-166179D01*
Y-165893D01*
Y-165607D01*
X968184D01*
Y-165320D01*
Y-165034D01*
Y-164748D01*
Y-164461D01*
Y-164175D01*
Y-163889D01*
Y-163602D01*
X968471D01*
Y-163316D01*
Y-163030D01*
Y-162743D01*
Y-162457D01*
Y-162171D01*
Y-161884D01*
X968757D01*
Y-161598D01*
Y-161312D01*
Y-161026D01*
Y-160739D01*
Y-160453D01*
Y-160167D01*
X969043D01*
Y-159880D01*
Y-159594D01*
Y-159308D01*
Y-159021D01*
Y-158735D01*
Y-158449D01*
Y-158162D01*
X969330D01*
Y-157876D01*
Y-157590D01*
Y-157304D01*
Y-157017D01*
Y-156731D01*
Y-156445D01*
X969616D01*
Y-156158D01*
Y-155872D01*
Y-155586D01*
Y-155299D01*
Y-155013D01*
Y-154727D01*
X969902D01*
Y-154440D01*
Y-154154D01*
Y-153868D01*
Y-153582D01*
Y-153295D01*
Y-153009D01*
X970189D01*
Y-152723D01*
Y-152436D01*
Y-152150D01*
Y-151864D01*
Y-151577D01*
Y-151291D01*
Y-151005D01*
X970475D01*
Y-150718D01*
Y-150432D01*
Y-150146D01*
Y-149859D01*
Y-149573D01*
Y-149287D01*
X970761D01*
Y-149001D01*
Y-148714D01*
Y-148428D01*
Y-148142D01*
Y-147855D01*
Y-147569D01*
X971047D01*
Y-147283D01*
Y-146996D01*
Y-146710D01*
Y-146424D01*
Y-146137D01*
Y-145851D01*
Y-145565D01*
X971334D01*
Y-145278D01*
Y-144992D01*
Y-144706D01*
X984504D01*
Y-144992D01*
D02*
G37*
G36*
X953296Y-148428D02*
X955014D01*
Y-148714D01*
X955873D01*
Y-149001D01*
X956732D01*
Y-149287D01*
X957591D01*
Y-149573D01*
X958164D01*
Y-149859D01*
X958450D01*
Y-150146D01*
X959022D01*
Y-150432D01*
X959309D01*
Y-150718D01*
X959881D01*
Y-151005D01*
X960168D01*
Y-151291D01*
X960454D01*
Y-151577D01*
X960740D01*
Y-151864D01*
X961027D01*
Y-152150D01*
X961313D01*
Y-152436D01*
X961599D01*
Y-152723D01*
Y-153009D01*
X961886D01*
Y-153295D01*
X962172D01*
Y-153582D01*
Y-153868D01*
X962458D01*
Y-154154D01*
X962745D01*
Y-154440D01*
Y-154727D01*
X963031D01*
Y-155013D01*
Y-155299D01*
Y-155586D01*
X963317D01*
Y-155872D01*
Y-156158D01*
Y-156445D01*
X963603D01*
Y-156731D01*
Y-157017D01*
Y-157304D01*
Y-157590D01*
X963890D01*
Y-157876D01*
Y-158162D01*
Y-158449D01*
Y-158735D01*
Y-159021D01*
X964176D01*
Y-159308D01*
Y-159594D01*
Y-159880D01*
Y-160167D01*
Y-160453D01*
Y-160739D01*
Y-161026D01*
Y-161312D01*
Y-161598D01*
Y-161884D01*
Y-162171D01*
Y-162457D01*
Y-162743D01*
Y-163030D01*
Y-163316D01*
Y-163602D01*
Y-163889D01*
Y-164175D01*
Y-164461D01*
Y-164748D01*
X963890D01*
Y-165034D01*
Y-165320D01*
Y-165607D01*
Y-165893D01*
Y-166179D01*
Y-166466D01*
Y-166752D01*
X963603D01*
Y-167038D01*
Y-167324D01*
Y-167611D01*
Y-167897D01*
Y-168183D01*
X963317D01*
Y-168470D01*
Y-168756D01*
Y-169042D01*
Y-169329D01*
Y-169615D01*
X963031D01*
Y-169901D01*
Y-170188D01*
Y-170474D01*
X962745D01*
Y-170760D01*
Y-171047D01*
Y-171333D01*
Y-171619D01*
X962458D01*
Y-171906D01*
Y-172192D01*
Y-172478D01*
X962172D01*
Y-172764D01*
Y-173051D01*
X961886D01*
Y-173337D01*
Y-173623D01*
Y-173910D01*
X961599D01*
Y-174196D01*
Y-174482D01*
X961313D01*
Y-174769D01*
Y-175055D01*
X961027D01*
Y-175341D01*
Y-175628D01*
X960740D01*
Y-175914D01*
X960454D01*
Y-176200D01*
Y-176487D01*
X960168D01*
Y-176773D01*
X959881D01*
Y-177059D01*
X959595D01*
Y-177345D01*
Y-177632D01*
X959309D01*
Y-177918D01*
X959022D01*
Y-178204D01*
X958736D01*
Y-178491D01*
X958450D01*
Y-178777D01*
X958164D01*
Y-179063D01*
X957591D01*
Y-179350D01*
X957304D01*
Y-179636D01*
X956732D01*
Y-179922D01*
X956446D01*
Y-180209D01*
X955873D01*
Y-180495D01*
X955014D01*
Y-180781D01*
X954155D01*
Y-181068D01*
X953296D01*
Y-181354D01*
X951578D01*
Y-181640D01*
X946425D01*
Y-181354D01*
X943848D01*
Y-181068D01*
X941844D01*
Y-180781D01*
X940412D01*
Y-180495D01*
X938980D01*
Y-180209D01*
X937549D01*
Y-180495D01*
Y-180781D01*
Y-181068D01*
Y-181354D01*
Y-181640D01*
Y-181926D01*
Y-182213D01*
X937263D01*
Y-182499D01*
Y-182785D01*
Y-183072D01*
Y-183358D01*
Y-183644D01*
Y-183931D01*
X936976D01*
Y-184217D01*
Y-184503D01*
Y-184790D01*
Y-185076D01*
Y-185362D01*
Y-185649D01*
X936690D01*
Y-185935D01*
Y-186221D01*
Y-186507D01*
Y-186794D01*
Y-187080D01*
Y-187366D01*
Y-187653D01*
X936404D01*
Y-187939D01*
Y-188225D01*
Y-188512D01*
Y-188798D01*
Y-189084D01*
Y-189371D01*
X936117D01*
Y-189657D01*
Y-189943D01*
Y-190229D01*
Y-190516D01*
Y-190802D01*
Y-191088D01*
X935831D01*
Y-191375D01*
Y-191661D01*
Y-191947D01*
Y-192234D01*
Y-192520D01*
Y-192806D01*
Y-193093D01*
X935545D01*
Y-193379D01*
Y-193665D01*
Y-193952D01*
Y-194238D01*
Y-194524D01*
Y-194810D01*
X935258D01*
Y-195097D01*
Y-195383D01*
Y-195669D01*
Y-195956D01*
Y-196242D01*
Y-196528D01*
X934972D01*
Y-196815D01*
Y-197101D01*
Y-197387D01*
Y-197674D01*
Y-197960D01*
Y-198246D01*
Y-198533D01*
X921515D01*
Y-198246D01*
X921802D01*
Y-197960D01*
Y-197674D01*
Y-197387D01*
Y-197101D01*
Y-196815D01*
X922088D01*
Y-196528D01*
Y-196242D01*
Y-195956D01*
Y-195669D01*
Y-195383D01*
Y-195097D01*
Y-194810D01*
X922374D01*
Y-194524D01*
Y-194238D01*
Y-193952D01*
Y-193665D01*
Y-193379D01*
Y-193093D01*
X922661D01*
Y-192806D01*
Y-192520D01*
Y-192234D01*
Y-191947D01*
Y-191661D01*
Y-191375D01*
X922947D01*
Y-191088D01*
Y-190802D01*
Y-190516D01*
Y-190229D01*
Y-189943D01*
Y-189657D01*
Y-189371D01*
X923233D01*
Y-189084D01*
Y-188798D01*
Y-188512D01*
Y-188225D01*
Y-187939D01*
Y-187653D01*
X923520D01*
Y-187366D01*
Y-187080D01*
Y-186794D01*
Y-186507D01*
Y-186221D01*
Y-185935D01*
X923806D01*
Y-185649D01*
Y-185362D01*
Y-185076D01*
Y-184790D01*
Y-184503D01*
Y-184217D01*
X924092D01*
Y-183931D01*
Y-183644D01*
Y-183358D01*
Y-183072D01*
Y-182785D01*
Y-182499D01*
Y-182213D01*
X924378D01*
Y-181926D01*
Y-181640D01*
Y-181354D01*
Y-181068D01*
Y-180781D01*
Y-180495D01*
X924665D01*
Y-180209D01*
Y-179922D01*
Y-179636D01*
Y-179350D01*
Y-179063D01*
Y-178777D01*
X924951D01*
Y-178491D01*
Y-178204D01*
Y-177918D01*
Y-177632D01*
Y-177345D01*
Y-177059D01*
X925237D01*
Y-176773D01*
Y-176487D01*
Y-176200D01*
Y-175914D01*
Y-175628D01*
Y-175341D01*
Y-175055D01*
X925524D01*
Y-174769D01*
Y-174482D01*
Y-174196D01*
Y-173910D01*
Y-173623D01*
Y-173337D01*
X925810D01*
Y-173051D01*
Y-172764D01*
Y-172478D01*
Y-172192D01*
Y-171906D01*
Y-171619D01*
X926096D01*
Y-171333D01*
Y-171047D01*
Y-170760D01*
Y-170474D01*
Y-170188D01*
Y-169901D01*
Y-169615D01*
X926383D01*
Y-169329D01*
Y-169042D01*
Y-168756D01*
Y-168470D01*
Y-168183D01*
Y-167897D01*
X926669D01*
Y-167611D01*
Y-167324D01*
Y-167038D01*
Y-166752D01*
Y-166466D01*
Y-166179D01*
X926955D01*
Y-165893D01*
Y-165607D01*
Y-165320D01*
Y-165034D01*
Y-164748D01*
Y-164461D01*
X927242D01*
Y-164175D01*
Y-163889D01*
Y-163602D01*
Y-163316D01*
Y-163030D01*
Y-162743D01*
Y-162457D01*
X927528D01*
Y-162171D01*
Y-161884D01*
Y-161598D01*
Y-161312D01*
Y-161026D01*
Y-160739D01*
X927814D01*
Y-160453D01*
Y-160167D01*
Y-159880D01*
Y-159594D01*
Y-159308D01*
Y-159021D01*
X928101D01*
Y-158735D01*
Y-158449D01*
Y-158162D01*
Y-157876D01*
Y-157590D01*
Y-157304D01*
Y-157017D01*
X928387D01*
Y-156731D01*
Y-156445D01*
Y-156158D01*
Y-155872D01*
Y-155586D01*
Y-155299D01*
X928673D01*
Y-155013D01*
Y-154727D01*
Y-154440D01*
Y-154154D01*
Y-153868D01*
Y-153582D01*
X928959D01*
Y-153295D01*
Y-153009D01*
Y-152723D01*
Y-152436D01*
Y-152150D01*
Y-151864D01*
Y-151577D01*
X929246D01*
Y-151291D01*
Y-151005D01*
Y-150718D01*
Y-150432D01*
Y-150146D01*
Y-149859D01*
X929532D01*
Y-149573D01*
Y-149287D01*
Y-149001D01*
Y-148714D01*
Y-148428D01*
Y-148142D01*
X953296D01*
Y-148428D01*
D02*
G37*
G36*
X1086432Y-162457D02*
X1086145D01*
Y-162743D01*
X1085859D01*
Y-163030D01*
Y-163316D01*
X1085573D01*
Y-163602D01*
X1085286D01*
Y-163889D01*
X1085000D01*
Y-164175D01*
Y-164461D01*
X1084714D01*
Y-164748D01*
X1084427D01*
Y-165034D01*
X1084141D01*
Y-165320D01*
X1083855D01*
Y-165607D01*
Y-165893D01*
X1083568D01*
Y-166179D01*
X1083282D01*
Y-166466D01*
X1082996D01*
Y-166752D01*
Y-167038D01*
X1082710D01*
Y-167324D01*
X1082423D01*
Y-167611D01*
X1082137D01*
Y-167897D01*
X1081851D01*
Y-168183D01*
Y-168470D01*
X1081564D01*
Y-168756D01*
X1081278D01*
Y-169042D01*
X1080992D01*
Y-169329D01*
Y-169615D01*
X1080705D01*
Y-169901D01*
X1080419D01*
Y-170188D01*
X1080133D01*
Y-170474D01*
Y-170760D01*
X1079846D01*
Y-171047D01*
X1079560D01*
Y-171333D01*
X1079274D01*
Y-171619D01*
X1078988D01*
Y-171906D01*
Y-172192D01*
X1078701D01*
Y-172478D01*
X1078415D01*
Y-172764D01*
X1078129D01*
Y-173051D01*
Y-173337D01*
X1077842D01*
Y-173623D01*
X1077556D01*
Y-173910D01*
X1077270D01*
Y-174196D01*
Y-174482D01*
X1076983D01*
Y-174769D01*
X1076697D01*
Y-175055D01*
X1076411D01*
Y-175341D01*
X1076124D01*
Y-175628D01*
Y-175914D01*
X1075838D01*
Y-176200D01*
X1075552D01*
Y-176487D01*
X1075265D01*
Y-176773D01*
Y-177059D01*
X1074979D01*
Y-177345D01*
X1074693D01*
Y-177632D01*
X1074407D01*
Y-177918D01*
Y-178204D01*
X1074120D01*
Y-178491D01*
X1073834D01*
Y-178777D01*
X1073547D01*
Y-179063D01*
X1073261D01*
Y-179350D01*
Y-179636D01*
X1072975D01*
Y-179922D01*
X1072689D01*
Y-180209D01*
X1072402D01*
Y-180495D01*
Y-180781D01*
X1072116D01*
Y-181068D01*
X1071830D01*
Y-181354D01*
X1071543D01*
Y-181640D01*
X1071257D01*
Y-181926D01*
Y-182213D01*
X1071543D01*
Y-182499D01*
Y-182785D01*
X1071830D01*
Y-183072D01*
Y-183358D01*
X1072116D01*
Y-183644D01*
X1072402D01*
Y-183931D01*
Y-184217D01*
X1072689D01*
Y-184503D01*
Y-184790D01*
X1072975D01*
Y-185076D01*
Y-185362D01*
X1073261D01*
Y-185649D01*
Y-185935D01*
X1073547D01*
Y-186221D01*
Y-186507D01*
X1073834D01*
Y-186794D01*
Y-187080D01*
X1074120D01*
Y-187366D01*
Y-187653D01*
X1074407D01*
Y-187939D01*
Y-188225D01*
X1074693D01*
Y-188512D01*
X1074979D01*
Y-188798D01*
Y-189084D01*
X1075265D01*
Y-189371D01*
Y-189657D01*
X1075552D01*
Y-189943D01*
Y-190229D01*
X1075838D01*
Y-190516D01*
Y-190802D01*
X1076124D01*
Y-191088D01*
Y-191375D01*
X1076411D01*
Y-191661D01*
Y-191947D01*
X1076697D01*
Y-192234D01*
Y-192520D01*
X1076983D01*
Y-192806D01*
X1077270D01*
Y-193093D01*
Y-193379D01*
X1077556D01*
Y-193665D01*
Y-193952D01*
X1077842D01*
Y-194238D01*
Y-194524D01*
X1078129D01*
Y-194810D01*
Y-195097D01*
X1078415D01*
Y-195383D01*
Y-195669D01*
X1078701D01*
Y-195956D01*
Y-196242D01*
X1078988D01*
Y-196528D01*
Y-196815D01*
X1079274D01*
Y-197101D01*
X1079560D01*
Y-197387D01*
Y-197674D01*
X1079846D01*
Y-197960D01*
Y-198246D01*
X1080133D01*
Y-198533D01*
X1064958D01*
Y-198246D01*
X1064672D01*
Y-197960D01*
Y-197674D01*
Y-197387D01*
X1064386D01*
Y-197101D01*
Y-196815D01*
Y-196528D01*
X1064099D01*
Y-196242D01*
Y-195956D01*
X1063813D01*
Y-195669D01*
Y-195383D01*
Y-195097D01*
X1063527D01*
Y-194810D01*
Y-194524D01*
Y-194238D01*
X1063240D01*
Y-193952D01*
Y-193665D01*
X1062954D01*
Y-193379D01*
Y-193093D01*
Y-192806D01*
X1062668D01*
Y-192520D01*
Y-192234D01*
Y-191947D01*
X1062381D01*
Y-191661D01*
Y-191375D01*
Y-191088D01*
X1062095D01*
Y-190802D01*
X1061522D01*
Y-191088D01*
Y-191375D01*
X1061236D01*
Y-191661D01*
X1060950D01*
Y-191947D01*
Y-192234D01*
X1060664D01*
Y-192520D01*
X1060377D01*
Y-192806D01*
Y-193093D01*
X1060091D01*
Y-193379D01*
X1059805D01*
Y-193665D01*
Y-193952D01*
X1059518D01*
Y-194238D01*
X1059232D01*
Y-194524D01*
X1058946D01*
Y-194810D01*
Y-195097D01*
X1058659D01*
Y-195383D01*
X1058373D01*
Y-195669D01*
Y-195956D01*
X1058087D01*
Y-196242D01*
X1057800D01*
Y-196528D01*
Y-196815D01*
X1057514D01*
Y-197101D01*
X1057228D01*
Y-197387D01*
Y-197674D01*
X1056941D01*
Y-197960D01*
X1056655D01*
Y-198246D01*
Y-198533D01*
X1040622D01*
Y-198246D01*
X1040908D01*
Y-197960D01*
X1041194D01*
Y-197674D01*
X1041481D01*
Y-197387D01*
X1041767D01*
Y-197101D01*
Y-196815D01*
X1042053D01*
Y-196528D01*
X1042339D01*
Y-196242D01*
X1042626D01*
Y-195956D01*
X1042912D01*
Y-195669D01*
Y-195383D01*
X1043198D01*
Y-195097D01*
X1043485D01*
Y-194810D01*
X1043771D01*
Y-194524D01*
Y-194238D01*
X1044057D01*
Y-193952D01*
X1044344D01*
Y-193665D01*
X1044630D01*
Y-193379D01*
X1044916D01*
Y-193093D01*
Y-192806D01*
X1045203D01*
Y-192520D01*
X1045489D01*
Y-192234D01*
X1045775D01*
Y-191947D01*
X1046062D01*
Y-191661D01*
Y-191375D01*
X1046348D01*
Y-191088D01*
X1046634D01*
Y-190802D01*
X1046920D01*
Y-190516D01*
Y-190229D01*
X1047207D01*
Y-189943D01*
X1047493D01*
Y-189657D01*
X1047779D01*
Y-189371D01*
X1048066D01*
Y-189084D01*
Y-188798D01*
X1048352D01*
Y-188512D01*
X1048638D01*
Y-188225D01*
X1048925D01*
Y-187939D01*
Y-187653D01*
X1049211D01*
Y-187366D01*
X1049497D01*
Y-187080D01*
X1049784D01*
Y-186794D01*
X1050070D01*
Y-186507D01*
Y-186221D01*
X1050356D01*
Y-185935D01*
X1050642D01*
Y-185649D01*
X1050929D01*
Y-185362D01*
Y-185076D01*
X1051215D01*
Y-184790D01*
X1051501D01*
Y-184503D01*
X1051788D01*
Y-184217D01*
X1052074D01*
Y-183931D01*
Y-183644D01*
X1052360D01*
Y-183358D01*
X1052647D01*
Y-183072D01*
X1052933D01*
Y-182785D01*
X1053219D01*
Y-182499D01*
Y-182213D01*
X1053506D01*
Y-181926D01*
X1053792D01*
Y-181640D01*
X1054078D01*
Y-181354D01*
Y-181068D01*
X1054365D01*
Y-180781D01*
X1054651D01*
Y-180495D01*
X1054937D01*
Y-180209D01*
X1055223D01*
Y-179922D01*
Y-179636D01*
X1055510D01*
Y-179350D01*
Y-179063D01*
Y-178777D01*
X1055223D01*
Y-178491D01*
X1054937D01*
Y-178204D01*
Y-177918D01*
X1054651D01*
Y-177632D01*
Y-177345D01*
X1054365D01*
Y-177059D01*
Y-176773D01*
X1054078D01*
Y-176487D01*
Y-176200D01*
X1053792D01*
Y-175914D01*
Y-175628D01*
X1053506D01*
Y-175341D01*
Y-175055D01*
X1053219D01*
Y-174769D01*
X1052933D01*
Y-174482D01*
Y-174196D01*
X1052647D01*
Y-173910D01*
Y-173623D01*
X1052360D01*
Y-173337D01*
Y-173051D01*
X1052074D01*
Y-172764D01*
Y-172478D01*
X1051788D01*
Y-172192D01*
Y-171906D01*
X1051501D01*
Y-171619D01*
Y-171333D01*
X1051215D01*
Y-171047D01*
X1050929D01*
Y-170760D01*
Y-170474D01*
X1050642D01*
Y-170188D01*
Y-169901D01*
X1050356D01*
Y-169615D01*
Y-169329D01*
X1050070D01*
Y-169042D01*
Y-168756D01*
X1049784D01*
Y-168470D01*
Y-168183D01*
X1049497D01*
Y-167897D01*
Y-167611D01*
X1049211D01*
Y-167324D01*
Y-167038D01*
X1048925D01*
Y-166752D01*
X1048638D01*
Y-166466D01*
Y-166179D01*
X1048352D01*
Y-165893D01*
Y-165607D01*
X1048066D01*
Y-165320D01*
Y-165034D01*
X1047779D01*
Y-164748D01*
Y-164461D01*
X1047493D01*
Y-164175D01*
Y-163889D01*
X1047207D01*
Y-163602D01*
Y-163316D01*
X1046920D01*
Y-163030D01*
X1046634D01*
Y-162743D01*
Y-162457D01*
X1046348D01*
Y-162171D01*
X1062095D01*
Y-162457D01*
X1062381D01*
Y-162743D01*
Y-163030D01*
Y-163316D01*
X1062668D01*
Y-163602D01*
Y-163889D01*
Y-164175D01*
X1062954D01*
Y-164461D01*
Y-164748D01*
Y-165034D01*
X1063240D01*
Y-165320D01*
Y-165607D01*
Y-165893D01*
X1063527D01*
Y-166179D01*
Y-166466D01*
Y-166752D01*
X1063813D01*
Y-167038D01*
Y-167324D01*
Y-167611D01*
X1064099D01*
Y-167897D01*
Y-168183D01*
Y-168470D01*
X1064386D01*
Y-168756D01*
Y-169042D01*
Y-169329D01*
X1064672D01*
Y-169615D01*
Y-169901D01*
Y-170188D01*
Y-170474D01*
X1065244D01*
Y-170188D01*
X1065531D01*
Y-169901D01*
X1065817D01*
Y-169615D01*
Y-169329D01*
X1066103D01*
Y-169042D01*
X1066390D01*
Y-168756D01*
Y-168470D01*
X1066676D01*
Y-168183D01*
X1066962D01*
Y-167897D01*
Y-167611D01*
X1067249D01*
Y-167324D01*
X1067535D01*
Y-167038D01*
Y-166752D01*
X1067821D01*
Y-166466D01*
X1068108D01*
Y-166179D01*
Y-165893D01*
X1068394D01*
Y-165607D01*
X1068680D01*
Y-165320D01*
Y-165034D01*
X1068966D01*
Y-164748D01*
X1069253D01*
Y-164461D01*
Y-164175D01*
X1069539D01*
Y-163889D01*
X1069825D01*
Y-163602D01*
Y-163316D01*
X1070112D01*
Y-163030D01*
X1070398D01*
Y-162743D01*
Y-162457D01*
X1070684D01*
Y-162171D01*
X1086432D01*
Y-162457D01*
D02*
G37*
%LPC*%
G36*
X949001Y-159308D02*
X940985D01*
Y-159594D01*
Y-159880D01*
Y-160167D01*
Y-160453D01*
Y-160739D01*
X940698D01*
Y-161026D01*
Y-161312D01*
Y-161598D01*
Y-161884D01*
Y-162171D01*
Y-162457D01*
X940412D01*
Y-162743D01*
Y-163030D01*
Y-163316D01*
Y-163602D01*
Y-163889D01*
Y-164175D01*
X940126D01*
Y-164461D01*
Y-164748D01*
Y-165034D01*
Y-165320D01*
Y-165607D01*
Y-165893D01*
X939839D01*
Y-166179D01*
Y-166466D01*
Y-166752D01*
Y-167038D01*
Y-167324D01*
Y-167611D01*
Y-167897D01*
X939553D01*
Y-168183D01*
Y-168470D01*
Y-168756D01*
Y-169042D01*
Y-169329D01*
Y-169615D01*
X939267D01*
Y-169901D01*
Y-170188D01*
Y-170474D01*
X946425D01*
Y-170188D01*
X947570D01*
Y-169901D01*
X948143D01*
Y-169615D01*
X948429D01*
Y-169329D01*
X948715D01*
Y-169042D01*
X949001D01*
Y-168756D01*
X949288D01*
Y-168470D01*
Y-168183D01*
X949574D01*
Y-167897D01*
Y-167611D01*
X949860D01*
Y-167324D01*
Y-167038D01*
X950147D01*
Y-166752D01*
Y-166466D01*
Y-166179D01*
Y-165893D01*
X950433D01*
Y-165607D01*
Y-165320D01*
Y-165034D01*
Y-164748D01*
Y-164461D01*
X950719D01*
Y-164175D01*
Y-163889D01*
Y-163602D01*
Y-163316D01*
Y-163030D01*
Y-162743D01*
Y-162457D01*
Y-162171D01*
Y-161884D01*
Y-161598D01*
Y-161312D01*
X950433D01*
Y-161026D01*
Y-160739D01*
X950147D01*
Y-160453D01*
Y-160167D01*
X949860D01*
Y-159880D01*
X949574D01*
Y-159594D01*
X949001D01*
Y-159308D01*
D02*
G37*
%LPD*%
D11*
X1133199Y-175201D02*
X1124016D01*
Y-182089D01*
X1128607D01*
X1124016D01*
Y-188976D01*
X1140087Y-179793D02*
X1144678D01*
X1146974Y-182089D01*
Y-188976D01*
X1140087D01*
X1137791Y-186680D01*
X1140087Y-184385D01*
X1146974D01*
X1151566Y-175201D02*
Y-188976D01*
X1158453D01*
X1160749Y-186680D01*
Y-184385D01*
Y-182089D01*
X1158453Y-179793D01*
X1151566D01*
X1165341D02*
Y-188976D01*
Y-184385D01*
X1167637Y-182089D01*
X1169933Y-179793D01*
X1172229D01*
X1179116Y-188976D02*
X1183708D01*
X1181412D01*
Y-179793D01*
X1179116D01*
X1199779D02*
X1192891D01*
X1190595Y-182089D01*
Y-186680D01*
X1192891Y-188976D01*
X1199779D01*
X1206666Y-179793D02*
X1211258D01*
X1213554Y-182089D01*
Y-188976D01*
X1206666D01*
X1204370Y-186680D01*
X1206666Y-184385D01*
X1213554D01*
X1220441Y-177497D02*
Y-179793D01*
X1218145D01*
X1222737D01*
X1220441D01*
Y-186680D01*
X1222737Y-188976D01*
X1229625D02*
X1234216D01*
X1231921D01*
Y-179793D01*
X1229625D01*
X1243400Y-188976D02*
X1247991D01*
X1250287Y-186680D01*
Y-182089D01*
X1247991Y-179793D01*
X1243400D01*
X1241104Y-182089D01*
Y-186680D01*
X1243400Y-188976D01*
X1254879D02*
Y-179793D01*
X1261767D01*
X1264062Y-182089D01*
Y-188976D01*
X1122700Y-135832D02*
X1112205D01*
Y-143703D01*
X1117452D01*
X1112205D01*
Y-151575D01*
X1130571Y-141079D02*
X1135819D01*
X1138443Y-143703D01*
Y-151575D01*
X1130571D01*
X1127948Y-148951D01*
X1130571Y-146327D01*
X1138443D01*
X1143691Y-135832D02*
Y-151575D01*
X1151562D01*
X1154186Y-148951D01*
Y-146327D01*
Y-143703D01*
X1151562Y-141079D01*
X1143691D01*
X1159433Y-135832D02*
Y-151575D01*
X1169929D01*
X1177800Y-141079D02*
X1183048D01*
X1185672Y-143703D01*
Y-151575D01*
X1177800D01*
X1175177Y-148951D01*
X1177800Y-146327D01*
X1185672D01*
X1190919Y-135832D02*
Y-151575D01*
X1198791D01*
X1201415Y-148951D01*
Y-146327D01*
Y-143703D01*
X1198791Y-141079D01*
X1190919D01*
X1222405Y-135832D02*
Y-151575D01*
X1230277D01*
X1232901Y-148951D01*
Y-146327D01*
X1230277Y-143703D01*
X1222405D01*
X1230277D01*
X1232901Y-141079D01*
Y-138456D01*
X1230277Y-135832D01*
X1222405D01*
X1240772Y-141079D02*
X1246020D01*
X1248643Y-143703D01*
Y-151575D01*
X1240772D01*
X1238148Y-148951D01*
X1240772Y-146327D01*
X1248643D01*
X1264386Y-135832D02*
Y-151575D01*
X1256515D01*
X1253891Y-148951D01*
Y-143703D01*
X1256515Y-141079D01*
X1264386D01*
X1274882Y-156823D02*
X1277506D01*
X1280129Y-154199D01*
Y-141079D01*
X1272258D01*
X1269634Y-143703D01*
Y-148951D01*
X1272258Y-151575D01*
X1280129D01*
X1293248D02*
X1288001D01*
X1285377Y-148951D01*
Y-143703D01*
X1288001Y-141079D01*
X1293248D01*
X1295872Y-143703D01*
Y-146327D01*
X1285377D01*
X1118110Y-230315D02*
X1122702D01*
X1120406D01*
Y-216540D01*
X1118110Y-218836D01*
X1129589Y-230315D02*
X1134181D01*
X1131885D01*
Y-216540D01*
X1129589Y-218836D01*
X1141069Y-230315D02*
X1150252Y-221132D01*
X1154844Y-218836D02*
X1157140Y-216540D01*
X1161731D01*
X1164027Y-218836D01*
Y-228019D01*
X1161731Y-230315D01*
X1157140D01*
X1154844Y-228019D01*
Y-218836D01*
X1168619D02*
X1170915Y-216540D01*
X1175506D01*
X1177802Y-218836D01*
Y-221132D01*
X1175506Y-223427D01*
X1173211D01*
X1175506D01*
X1177802Y-225723D01*
Y-228019D01*
X1175506Y-230315D01*
X1170915D01*
X1168619Y-228019D01*
X1182394Y-230315D02*
X1191577Y-221132D01*
X1205352Y-230315D02*
X1196169D01*
X1205352Y-221132D01*
Y-218836D01*
X1203057Y-216540D01*
X1198465D01*
X1196169Y-218836D01*
X1209944D02*
X1212240Y-216540D01*
X1216832D01*
X1219127Y-218836D01*
Y-228019D01*
X1216832Y-230315D01*
X1212240D01*
X1209944Y-228019D01*
Y-218836D01*
X1223719Y-230315D02*
X1228311D01*
X1226015D01*
Y-216540D01*
X1223719Y-218836D01*
X1244382Y-216540D02*
X1239790Y-218836D01*
X1235198Y-223427D01*
Y-228019D01*
X1237494Y-230315D01*
X1242086D01*
X1244382Y-228019D01*
Y-225723D01*
X1242086Y-223427D01*
X1235198D01*
X1281496Y-217196D02*
X1284120Y-214572D01*
X1289367D01*
X1291991Y-217196D01*
Y-227691D01*
X1289367Y-230315D01*
X1284120D01*
X1281496Y-227691D01*
Y-217196D01*
X1297239D02*
X1299863Y-214572D01*
X1305110D01*
X1307734Y-217196D01*
Y-227691D01*
X1305110Y-230315D01*
X1299863D01*
X1297239Y-227691D01*
Y-217196D01*
X927165Y-253942D02*
Y-269685D01*
X932413Y-264437D01*
X937661Y-269685D01*
Y-253942D01*
X942908Y-269685D02*
X948156D01*
X945532D01*
Y-259190D01*
X942908D01*
X956027Y-269685D02*
Y-259190D01*
X958651D01*
X961275Y-261814D01*
Y-269685D01*
Y-261814D01*
X963899Y-259190D01*
X966523Y-261814D01*
Y-269685D01*
X971770Y-253942D02*
Y-264437D01*
X977018Y-269685D01*
X982266Y-264437D01*
Y-253942D01*
X998009Y-256566D02*
X995385Y-253942D01*
X990137D01*
X987513Y-256566D01*
Y-267061D01*
X990137Y-269685D01*
X995385D01*
X998009Y-267061D01*
Y-261814D01*
X992761D01*
D12*
X66929Y-11811D02*
G03*
X62992Y12450I-3937J11811D01*
G01*
D02*
G03*
X59055Y7874I319J-4256D01*
G01*
Y-7874D02*
G03*
X66929Y-11811I5906J1969D01*
G01*
X-66929D02*
G03*
X-59055Y-7874I1969J5906D01*
G01*
Y7874D02*
G03*
X-62992Y12450I-4256J319D01*
G01*
D02*
G03*
X-66929Y-11811I0J-12450D01*
G01*
X72958Y-17048D02*
G03*
X63115Y19685I-9843J17048D01*
G01*
X72958Y-17048D02*
G03*
X58405Y-35408I10328J-23133D01*
G01*
X-58405D02*
G03*
X-72958Y-17048I-24880J-4773D01*
G01*
X-58405Y-35408D02*
G03*
X58405Y-35408I58405J23597D01*
G01*
X-63115Y19685D02*
G03*
X-72958Y-17048I0J-19685D01*
G01*
X-63113Y19670D02*
G03*
X-58405Y23597I-602J5507D01*
G01*
X58405D02*
G03*
X63113Y19670I5310J1580D01*
G01*
X58405Y23597D02*
G03*
X-58405Y23597I-58405J-23597D01*
G01*
X59055Y-7874D02*
Y7874D01*
X-59055Y-7874D02*
Y7874D01*
X-275590Y-275590D02*
X1377953D01*
X-275590D02*
Y893701D01*
X1377953Y-275590D02*
Y893701D01*
X-275590D02*
X1377953D01*
X1102362Y-275590D02*
Y-118110D01*
X905512Y-275590D02*
Y-118110D01*
X1377953D01*
X905512Y-236221D02*
X1377953D01*
X1102362Y-196850D02*
X1377953D01*
X1102362Y-157480D02*
X1377953D01*
X1259842Y-236221D02*
Y-196850D01*
X1116140Y-261813D02*
X1112205D01*
Y-264765D01*
X1114173D01*
X1112205D01*
Y-267717D01*
X1118108D02*
Y-263781D01*
X1120076Y-261813D01*
X1122044Y-263781D01*
Y-267717D01*
Y-264765D01*
X1118108D01*
X1124012Y-261813D02*
Y-267717D01*
X1126964D01*
X1127948Y-266733D01*
Y-265749D01*
X1126964Y-264765D01*
X1124012D01*
X1126964D01*
X1127948Y-263781D01*
Y-262797D01*
X1126964Y-261813D01*
X1124012D01*
X1129916D02*
Y-267717D01*
X1133851D01*
X1135819D02*
Y-263781D01*
X1137787Y-261813D01*
X1139755Y-263781D01*
Y-267717D01*
Y-264765D01*
X1135819D01*
X1141723Y-261813D02*
Y-267717D01*
X1144674D01*
X1145658Y-266733D01*
Y-265749D01*
X1144674Y-264765D01*
X1141723D01*
X1144674D01*
X1145658Y-263781D01*
Y-262797D01*
X1144674Y-261813D01*
X1141723D01*
X1147626Y-268701D02*
X1151562D01*
X1153530Y-261813D02*
Y-267717D01*
X1156482D01*
X1157466Y-266733D01*
Y-265749D01*
X1156482Y-264765D01*
X1153530D01*
X1156482D01*
X1157466Y-263781D01*
Y-262797D01*
X1156482Y-261813D01*
X1153530D01*
X1159433Y-267717D02*
Y-263781D01*
X1161401Y-261813D01*
X1163369Y-263781D01*
Y-267717D01*
Y-264765D01*
X1159433D01*
X1165337Y-261813D02*
Y-267717D01*
X1168289D01*
X1169273Y-266733D01*
Y-262797D01*
X1168289Y-261813D01*
X1165337D01*
X1175176Y-262797D02*
X1174193Y-261813D01*
X1172225D01*
X1171241Y-262797D01*
Y-266733D01*
X1172225Y-267717D01*
X1174193D01*
X1175176Y-266733D01*
Y-264765D01*
X1173209D01*
X1181080Y-261813D02*
X1177144D01*
Y-267717D01*
X1181080D01*
X1177144Y-264765D02*
X1179112D01*
X1183048Y-268701D02*
X1186984D01*
X1188951Y-262797D02*
X1189935Y-261813D01*
X1191903D01*
X1192887Y-262797D01*
Y-266733D01*
X1191903Y-267717D01*
X1189935D01*
X1188951Y-266733D01*
Y-262797D01*
X1194855D02*
X1195839Y-261813D01*
X1197807D01*
X1198791Y-262797D01*
Y-266733D01*
X1197807Y-267717D01*
X1195839D01*
X1194855Y-266733D01*
Y-262797D01*
X1200759Y-267717D02*
Y-266733D01*
X1201743D01*
Y-267717D01*
X1200759D01*
X1205678D02*
Y-261813D01*
X1208630D01*
X1209614Y-262797D01*
Y-264765D01*
X1208630Y-265749D01*
X1205678D01*
X1215518Y-263781D02*
X1212566D01*
X1211582Y-264765D01*
Y-266733D01*
X1212566Y-267717D01*
X1215518D01*
X1217486Y-261813D02*
Y-267717D01*
X1220437D01*
X1221421Y-266733D01*
Y-265749D01*
Y-264765D01*
X1220437Y-263781D01*
X1217486D01*
X1223389Y-261813D02*
Y-267717D01*
X1226341D01*
X1227325Y-266733D01*
Y-262797D01*
X1226341Y-261813D01*
X1223389D01*
X1230277Y-267717D02*
X1232245D01*
X1233228Y-266733D01*
Y-264765D01*
X1232245Y-263781D01*
X1230277D01*
X1229293Y-264765D01*
Y-266733D01*
X1230277Y-267717D01*
X1239132Y-263781D02*
X1236180D01*
X1235196Y-264765D01*
Y-266733D01*
X1236180Y-267717D01*
X1239132D01*
D13*
X1106299Y-240160D02*
Y-248031D01*
X1110235D01*
X1111547Y-246720D01*
Y-241472D01*
X1110235Y-240160D01*
X1106299D01*
X1115483Y-248031D02*
X1118106D01*
X1119418Y-246720D01*
Y-244096D01*
X1118106Y-242784D01*
X1115483D01*
X1114171Y-244096D01*
Y-246720D01*
X1115483Y-248031D01*
X1127290Y-242784D02*
X1123354D01*
X1122042Y-244096D01*
Y-246720D01*
X1123354Y-248031D01*
X1127290D01*
X1129914Y-242784D02*
Y-246720D01*
X1131226Y-248031D01*
X1135161D01*
Y-242784D01*
X1137785Y-248031D02*
Y-242784D01*
X1139097D01*
X1140409Y-244096D01*
Y-248031D01*
Y-244096D01*
X1141721Y-242784D01*
X1143033Y-244096D01*
Y-248031D01*
X1149592D02*
X1146968D01*
X1145657Y-246720D01*
Y-244096D01*
X1146968Y-242784D01*
X1149592D01*
X1150904Y-244096D01*
Y-245408D01*
X1145657D01*
X1153528Y-248031D02*
Y-242784D01*
X1157464D01*
X1158776Y-244096D01*
Y-248031D01*
X1162712Y-241472D02*
Y-242784D01*
X1161400D01*
X1164023D01*
X1162712D01*
Y-246720D01*
X1164023Y-248031D01*
X1106299Y-200790D02*
Y-208661D01*
X1110235D01*
X1111547Y-207349D01*
Y-202102D01*
X1110235Y-200790D01*
X1106299D01*
X1115483Y-203414D02*
X1118106D01*
X1119418Y-204726D01*
Y-208661D01*
X1115483D01*
X1114171Y-207349D01*
X1115483Y-206038D01*
X1119418D01*
X1123354Y-202102D02*
Y-203414D01*
X1122042D01*
X1124666D01*
X1123354D01*
Y-207349D01*
X1124666Y-208661D01*
X1132537D02*
X1129914D01*
X1128602Y-207349D01*
Y-204726D01*
X1129914Y-203414D01*
X1132537D01*
X1133849Y-204726D01*
Y-206038D01*
X1128602D01*
X1106299Y-161420D02*
Y-169291D01*
X1111547D01*
X1115483Y-164044D02*
X1118106D01*
X1119418Y-165356D01*
Y-169291D01*
X1115483D01*
X1114171Y-167979D01*
X1115483Y-166667D01*
X1119418D01*
X1122042Y-164044D02*
Y-167979D01*
X1123354Y-169291D01*
X1127290D01*
Y-170603D01*
X1125978Y-171915D01*
X1124666D01*
X1127290Y-169291D02*
Y-164044D01*
X1133849Y-169291D02*
X1131226D01*
X1129914Y-167979D01*
Y-165356D01*
X1131226Y-164044D01*
X1133849D01*
X1135161Y-165356D01*
Y-166667D01*
X1129914D01*
X1137785Y-164044D02*
Y-169291D01*
Y-166667D01*
X1139097Y-165356D01*
X1140409Y-164044D01*
X1141721D01*
X1153528Y-169291D02*
Y-161420D01*
X1158776Y-169291D01*
Y-161420D01*
X1162712Y-164044D02*
X1165335D01*
X1166647Y-165356D01*
Y-169291D01*
X1162712D01*
X1161400Y-167979D01*
X1162712Y-166667D01*
X1166647D01*
X1169271Y-169291D02*
Y-164044D01*
X1170583D01*
X1171895Y-165356D01*
Y-169291D01*
Y-165356D01*
X1173207Y-164044D01*
X1174519Y-165356D01*
Y-169291D01*
X1181078D02*
X1178454D01*
X1177143Y-167979D01*
Y-165356D01*
X1178454Y-164044D01*
X1181078D01*
X1182390Y-165356D01*
Y-166667D01*
X1177143D01*
X1106299Y-122050D02*
Y-129921D01*
X1110235D01*
X1111547Y-128609D01*
Y-123362D01*
X1110235Y-122050D01*
X1106299D01*
X1115483Y-129921D02*
X1118106D01*
X1119418Y-128609D01*
Y-125986D01*
X1118106Y-124674D01*
X1115483D01*
X1114171Y-125986D01*
Y-128609D01*
X1115483Y-129921D01*
X1127290Y-124674D02*
X1123354D01*
X1122042Y-125986D01*
Y-128609D01*
X1123354Y-129921D01*
X1127290D01*
X1129914Y-124674D02*
Y-128609D01*
X1131226Y-129921D01*
X1135161D01*
Y-124674D01*
X1137785Y-129921D02*
Y-124674D01*
X1139097D01*
X1140409Y-125986D01*
Y-129921D01*
Y-125986D01*
X1141721Y-124674D01*
X1143033Y-125986D01*
Y-129921D01*
X1149592D02*
X1146968D01*
X1145657Y-128609D01*
Y-125986D01*
X1146968Y-124674D01*
X1149592D01*
X1150904Y-125986D01*
Y-127297D01*
X1145657D01*
X1153528Y-129921D02*
Y-124674D01*
X1157464D01*
X1158776Y-125986D01*
Y-129921D01*
X1162712Y-123362D02*
Y-124674D01*
X1161400D01*
X1164023D01*
X1162712D01*
Y-128609D01*
X1164023Y-129921D01*
X909449Y-240160D02*
Y-248031D01*
X913385D01*
X914697Y-246720D01*
Y-241472D01*
X913385Y-240160D01*
X909449D01*
X921256Y-248031D02*
X918632D01*
X917320Y-246720D01*
Y-244096D01*
X918632Y-242784D01*
X921256D01*
X922568Y-244096D01*
Y-245408D01*
X917320D01*
X925192Y-248031D02*
X929128D01*
X930439Y-246720D01*
X929128Y-245408D01*
X926504D01*
X925192Y-244096D01*
X926504Y-242784D01*
X930439D01*
X935687Y-250655D02*
X936999D01*
X938311Y-249343D01*
Y-242784D01*
X934375D01*
X933063Y-244096D01*
Y-246720D01*
X934375Y-248031D01*
X938311D01*
X940935D02*
X943559D01*
X942247D01*
Y-242784D01*
X940935D01*
X947494Y-248031D02*
Y-242784D01*
X951430D01*
X952742Y-244096D01*
Y-248031D01*
X959301D02*
X956678D01*
X955366Y-246720D01*
Y-244096D01*
X956678Y-242784D01*
X959301D01*
X960613Y-244096D01*
Y-245408D01*
X955366D01*
X963237Y-242784D02*
Y-248031D01*
Y-245408D01*
X964549Y-244096D01*
X965861Y-242784D01*
X967173D01*
X1263780Y-208661D02*
Y-200790D01*
X1267715D01*
X1269027Y-202102D01*
Y-204726D01*
X1267715Y-206038D01*
X1263780D01*
X1266403D02*
X1269027Y-208661D01*
X1275587D02*
X1272963D01*
X1271651Y-207349D01*
Y-204726D01*
X1272963Y-203414D01*
X1275587D01*
X1276899Y-204726D01*
Y-206038D01*
X1271651D01*
X1279523Y-203414D02*
X1282146Y-208661D01*
X1284770Y-203414D01*
D20*
X82801Y-91551D02*
Y-1394D01*
X-82801Y-91551D02*
Y-1394D01*
X13995Y-90551D02*
X82801D01*
X-82801D02*
X-17196D01*
X76801Y-88551D02*
X82801Y-90551D01*
X76801Y-92551D02*
X82801Y-90551D01*
X-82801D02*
X-76801Y-92551D01*
X-82801Y-90551D02*
X-76801Y-88551D01*
X-93520Y-74803D02*
X-1394D01*
X-93520Y62992D02*
X-1394D01*
X-92520Y-74803D02*
Y-23101D01*
Y8090D02*
Y62992D01*
Y-74803D02*
X-90520Y-68803D01*
X-94520D02*
X-92520Y-74803D01*
X-94520Y56992D02*
X-92520Y62992D01*
X-90520Y56992D01*
D21*
X-12596Y-95150D02*
Y-89152D01*
X-15596Y-92151D01*
X-11597D01*
X-5599Y-95150D02*
X-9597D01*
X-5599Y-91151D01*
Y-90152D01*
X-6598Y-89152D01*
X-8598D01*
X-9597Y-90152D01*
X-2600Y-96150D02*
X-1600Y-95150D01*
Y-94150D01*
X-2600D01*
Y-95150D01*
X-1600D01*
X-2600Y-96150D01*
X-3599Y-97149D01*
X2399Y-90152D02*
X3398Y-89152D01*
X5398D01*
X6397Y-90152D01*
Y-94150D01*
X5398Y-95150D01*
X3398D01*
X2399Y-94150D01*
Y-90152D01*
X12395Y-89152D02*
X10396Y-90152D01*
X8397Y-92151D01*
Y-94150D01*
X9396Y-95150D01*
X11396D01*
X12395Y-94150D01*
Y-93151D01*
X11396Y-92151D01*
X8397D01*
X-92919Y-21501D02*
X-93919Y-20501D01*
Y-18502D01*
X-92919Y-17502D01*
X-91920D01*
X-90920Y-18502D01*
Y-19502D01*
Y-18502D01*
X-89920Y-17502D01*
X-88921D01*
X-87921Y-18502D01*
Y-20501D01*
X-88921Y-21501D01*
X-93919Y-11504D02*
Y-15503D01*
X-90920D01*
X-91920Y-13504D01*
Y-12504D01*
X-90920Y-11504D01*
X-88921D01*
X-87921Y-12504D01*
Y-14503D01*
X-88921Y-15503D01*
X-86921Y-8505D02*
X-87921Y-7506D01*
X-88921D01*
Y-8505D01*
X-87921D01*
Y-7506D01*
X-86921Y-8505D01*
X-85922Y-9505D01*
X-92919Y-3507D02*
X-93919Y-2507D01*
Y-508D01*
X-92919Y492D01*
X-88921D01*
X-87921Y-508D01*
Y-2507D01*
X-88921Y-3507D01*
X-92919D01*
Y2491D02*
X-93919Y3491D01*
Y5490D01*
X-92919Y6490D01*
X-88921D01*
X-87921Y5490D01*
Y3491D01*
X-88921Y2491D01*
X-92919D01*
M02*
